<?xml version="1.0" encoding="UTF-8"?>
<svg id="Layer_2" xmlns="http://www.w3.org/2000/svg" viewBox="0 0 659.1 659.2">
  <defs>
    <style>
      .cls-1 {
        fill: #fff;
      }

      .cls-2, .cls-3 {
        fill: #d92827;
      }

      .cls-2, .cls-4 {
        fill-rule: evenodd;
      }

      .cls-5, .cls-4 {
        fill: #c10000;
      }
    </style>
  </defs>
  <g id="Layer_1-2" data-name="Layer_1">
    <g>
      <path class="cls-2" d="M382,347.3c3-2.7,6.6-5.4,10.8-7.8,17.1-9.9,42.3-11.1,42.3-11.1-5.3-5.2-37.8,8.8-48.3-7.7,17.6,5.4,27.4-5.4,44.9-3.3,8.6,1,12.1,7.1,12.1,7.1,0,0,11.5,1,18.5,4.5,7,3.5,8,8,8,8-25.7-8.2-57.2,21.4-64.8,56.6h0c-.5-22.1-14.1-37.8-23.5-46.1Z"/>
      <path class="cls-4" d="M341.3,479.7c1-.6,1.9-1.2,2.8-1.7,1-.6,2.1-1.2,3.1-1.9,142-92.7-164.5-359,80.3-376.1-144-14.5-139.6,122.8-108.2,204.1-43.1-52-49.3-127.2-22.3-171.7-42.5,42.1-33.9,133,.4,205.3-21.4-18.4-37.5-70.1-38-97.8-16.1,60,10.6,124.5,62,158.5l-67.8-32.7c39,38.7,89.7,61.7,88.1,110.2-44,19.7-109.9-24-185.1-22.6-19,.3-25.7,3.6-40.3,22.1,87-26.5,175.6,28.7,225.2,4.1,0,0,0,.2,0,.3Z"/>
      <path class="cls-2" d="M245.6,292.6c-74-62.4-147.3-120.2-34.1-196.6-132,59.4-59.5,176.1,8.4,230.9-63.3-23.5-106.3-85.5-105.2-137.6-15.7,57.7,37.1,132.1,103,177.6-27.7-5.3-67.5-41.9-81.8-65.7,16.1,60,71.4,102.6,133,106.3l-75.1,5.6c32,8.4,77.7,10.8,112,9.9-2.1-1.9-8.7-6.8-10.8-8.6-16.2-13.9-33.2-26.6-48.4-41.7l-42.5-42.2,68.3,32.9c-14.4-21.1-23.6-45.6-26.5-70.9Z"/>
      <path class="cls-4" d="M272.2,363.5c-14.4-21.2-23.6-45.6-26.6-70.9-20.3-17.1-40.5-33.9-56.9-50.8-4.7-4.8-9-9.6-13-14.5-2-2.4-3.8-4.9-5.6-7.3-.6-.9-1.3-1.8-1.9-2.8-.6-.9-1.3-1.8-1.8-2.8-2-3-3.8-6.2-5.4-9.3-.6-1.2-1.2-2.5-1.8-3.7-.3-.6-.5-1.1-.7-1.7-.7-1.6-1.3-3.2-1.9-4.7-1.5-4.3-2.5-8.6-3.1-13-.1-1.1-.2-2.2-.3-3.3,0-1.3-.1-2.6-.1-3.8s0-3,.2-4.6c0-.2,0-.4,0-.7.1-1.8.4-3.5.8-5.3.4-1.7.8-3.5,1.3-5.2.5-1.7,1.1-3.4,1.8-5.2.6-1.3,1.1-2.7,1.8-4,.6-1.2,1.2-2.5,1.8-3.7h0s0,0,0,.1c-1.9,2.1-28.6,34.8,19.5,99.8,49.8,67.3,73.8,98.9,73.8,98.9l-50.1-14.4,68.3,33ZM294.8,414.4c-16.2-13.9-33.2-26.6-48.5-41.7l-42.5-42.2,53.4,68s-47.8-8.2-82.3-32c.6.6,1.1,1.1,1.7,1.6,1.4,1.3,2.8,2.5,4.3,3.8,1.4,1.2,2.8,2.4,4.3,3.5,2,1.6,4,3.1,6.1,4.5.4.4.8.6,1.1.9,2.1,1.5,4.3,2.9,6.6,4.3,1.6,1,3.2,1.9,4.8,2.8,1.6.9,3.3,1.8,5,2.7,1.6.9,3.3,1.8,5,2.6,1.7.9,3.4,1.6,5.2,2.3,3.4,1.5,6.9,2.8,10.5,4.1,1.8.6,3.6,1.2,5.5,1.7,1.7.5,3.3,1,5,1.4.2.1.4.1.6.2,1.6.4,3,.7,4.6,1.1.9.2,1.8.4,2.8.6,1.1.2,2.3.5,3.5.7,1.3.2,2.6.4,4,.6,1.3.2,2.6.4,4,.6.4,0,.9,0,1.3.1.7,0,1.4.1,2.2.2,1.9.2,3.8.4,5.7.5l-75.1,5.6c32,8.4,77.7,10.8,112,9.9-2.1-1.9-8.7-6.8-10.8-8.6Z"/>
      <path class="cls-4" d="M398.4,445.9c-16.7,36.9-49.8,53.4-92.3,62,0,0-.1,0-.2,0-20.1,4.1-42.3,6.4-65.8,8.4-43.4,3.5-91.4,5.7-139.4,14.7-9.2,1.8-18.4,3.8-27.6,6.1-4.3-5.2-8.4-10.7-12.4-16.2-1.5-2.2-3-4.5-4.5-6.7,8.9-2.1,17.9-3.8,26.7-5.3,45.5-7.3,90.5-7.2,132.1-7.2,77.1,0,142.4-.4,176.7-49.8,0,0,0-.1,0-.1,1.3-1.8,2.6-3.8,3.8-5.7l3-.3Z"/>
      <path class="cls-2" d="M276.8,532.4c-38.1,13.7-80.2,27.6-119.7,48.9-8,4.3-15.9,8.9-23.6,13.8-7.6-5.6-15-11.6-22-17.8,7.6-4.7,15.3-9.1,23.2-13,39.1-19.9,80.4-31.2,118.8-41.5,18.4-4.9,36.1-9.6,52.5-14.8,38-12.2,69-27.4,85.7-55.9,0,0,0-.1,0-.1,7.8-13.4,12.5-29.7,13.2-50,5.2,77.8-53.7,103.7-128.1,130.4Z"/>
      <path class="cls-5" d="M625.5,184.2c-23.7-48.1-58.8-89.6-101.7-120.9C469.3,23.5,402.2,0,329.5,0S169.3,31.3,111.2,82.8C43,143.2,0,231.4,0,329.6s11.7,99.9,32.7,143.3c1.5,3.2,3,6.3,4.7,9.3,5.4,10.5,11.4,20.6,17.9,30.3.4.5.6.9,1,1.4,1.5,2.2,3,4.5,4.5,6.6,4,5.5,8.1,11,12.4,16.2,3.6,4.5,7.3,8.8,11.2,13.1,1.3,1.4,2.5,2.8,3.9,4.2,7.4,7.9,15.1,15.5,23.3,22.7,7.1,6.2,14.4,12.2,22,17.8,54.7,40.6,122.5,64.6,195.9,64.6,157.8,0,289.6-110.9,322-258.9,5-22.8,7.6-46.4,7.6-70.7,0-52.1-12.1-101.5-33.7-145.3ZM630.6,376.6c-.6,3.5-1.1,6.9-1.8,10.3-4.8,25.1-12.7,49.2-23.3,71.6l-.2.2-.3.3c-48.5,103.3-153.4,175.1-275.5,175.1s-7.1,0-10.6-.2c-4.4-.1-8.8-.4-13.2-.7-3.3-.3-6.5-.6-9.8-.9-1.6-.1-3.1-.4-4.6-.6-6-.7-12-1.6-18-2.8-1.9-.4-3.7-.7-5.6-1.1-5.7-1.1-11.3-2.5-16.9-4-1.8-.4-3.5-.9-5.3-1.5-3.3-.9-6.6-1.9-9.8-3-2.6-.8-5.2-1.7-7.8-2.6-4-1.3-7.8-2.8-11.7-4.4-3.3-1.3-6.6-2.7-9.8-4.2-.4-.1-.7-.3-1-.4-6.4-2.8-12.7-5.9-18.9-9.2-.6-.3-1.2-.6-1.8-1-6.3-3.4-12.4-7-18.5-10.8-3.1-2-6.2-4-9.2-6h-.1c-3.8-2.8-7.6-5.5-11.4-8.3-1.8-1.4-3.7-2.8-5.6-4.3-1.8-1.5-3.6-3-5.4-4.5-7.9-6.6-15.6-13.6-22.8-20.9-1.8-1.9-3.7-3.8-5.5-5.8-1.9-2.1-3.8-4.2-5.6-6.4-1.4-1.5-2.7-3-4-4.5-.3-.3-.5-.6-.7-.8-3-3.5-5.9-7.1-8.6-10.8-1.6-2-3-4-4.5-6-.6-.8-1.3-1.8-1.9-2.6-2.5-3.6-5-7.2-7.4-10.9-1-1.4-1.9-2.9-2.8-4.3-1.6-2.5-3.1-5-4.5-7.5-1.8-3.1-3.7-6.3-5.4-9.5-23.1-42.9-36.2-91.9-36.2-144.1s21.3-127.9,57.4-178c0,0,0,0,0,0h0c14.8-20.6,32-39.2,51.4-55.5,53-44.4,121.2-71.2,195.8-71.2s127.5,21.1,177.5,57c41.3,29.7,74.9,69.5,97.2,115.6,10.1,21,17.9,43.4,23,66.7,4.6,21,7,42.9,7,65.3s-1.2,31.7-3.6,47Z"/>
      <g>
        <path class="cls-3" d="M537.2,181c-9.6-37.2-43.1-64.8-83.2-65.5h0c-.5,0-1,0-1.6,0s-1.3,0-1.9,0c-40,.8-73.4,28.4-82.9,65.6-1.8,7-2.7,14.4-2.7,22s.7,13.2,2.2,19.5c2.1,9.3,5.7,18.1,10.5,26,5.5,8.9,12.5,16.8,20.6,23.1,5.9,4.7,12.3,8.7,19.3,11.6,9.7,4.2,20.3,6.7,31.5,7.1h0c.3,0,.7,0,1,0,.8,0,1.6,0,2.4,0s1.4,0,2.1,0c40.8-.9,74.6-29.7,83.3-68,1.5-6.3,2.2-12.8,2.2-19.5s-1-15-2.7-22ZM527.5,181.1c-35-1.7-64.4-25.1-74.8-57,35.7.1,65.6,24.3,74.8,57ZM451.6,124.1c-10.4,31.8-39.5,55.2-74.4,57,9-32.6,38.9-56.7,74.4-57ZM423.4,274.5c-2.7-1.1-5.3-2.3-7.9-3.7,0,0-.2,0-.4-.1l-4.5-2.7c-1.8-1.1-3.6-2.3-5.3-3.6-13.6-10.2-23.9-25-28.4-42,18.2.9,34.7,7.6,48,18.4,3.9,3.1,7.4,6.5,10.6,10.3,7.3,8.4,12.8,18.2,16.3,29-10.1,0-19.7-2-28.6-5.6ZM443.2,227.2c-2.5-.9-4.9-2.2-7-3.8-6.4-4.9-10.5-12.6-10.5-21.3,0-14.8,11.9-26.8,26.7-26.8s26.8,12,26.8,26.8-12,26.7-26.8,26.7-6.4-.6-9.2-1.6ZM452.4,280.1c10.3-32.3,39.9-56.2,75.3-57.7-8.9,33.2-39.2,57.7-75.3,57.7Z"/>
        <g>
          <path class="cls-3" d="M451.7,213.4c3,0,5.7-1.1,7.7-3-2.5,3.4-6.6,5.6-11.1,5.6-7.7,0-13.9-6.2-13.9-13.9s6.2-13.9,13.9-13.9,8.6,2.2,11.1,5.6c-2-1.9-4.7-3-7.7-3-6.2,0-11.3,5.1-11.3,11.3s5.1,11.3,11.3,11.3Z"/>
          <polygon class="cls-3" points="464 195.8 466.8 199.7 471.3 198.2 468.5 202.1 471.3 206 466.8 204.5 464 208.4 464 203.6 459.4 202.1 464 200.6 464 195.8"/>
        </g>
      </g>
      <path class="cls-5" d="M633.3,369.7c-21.3,167.7-174.6,286.4-342.4,265.1C123.2,613.5,4.5,460.2,25.8,292.5c13.9-109.4,83.9-197.9,177.5-240.4-62.8,42.7-107.7,111.1-118,192.3-19.1,150.3,87.2,287.7,237.6,306.8,150.3,19.1,287.6-87.2,306.8-237.6,1.4-10.7,2.1-21.3,2.2-31.8,4.6,28.4,5.3,57.9,1.5,87.8Z"/>
      <g>
        <path class="cls-1" d="M38.1,391.4c-.2.2-.4.3-.7.3-.3,0-.6,0-.8-.2-.3-.2-.4-.4-.5-.8l-2.5-13.7c-.1-.8,0-1.5.5-2.1l9.7-11.3-10.8,2c-.4,0-.7,0-1.1-.2-.3-.2-.5-.5-.6-.9l-2-10.9c0-.4,0-.8.2-1.1.2-.3.5-.5.9-.6l34.3-6.2c.4,0,.8,0,1.1.2.3.2.5.5.6.9l2,10.9c0,.4,0,.7-.2,1.1-.2.3-.5.5-.9.6l-10,1.8,12,6.5c.7.4,1.1,1,1.3,1.8l2.3,12.8c0,.3,0,.6-.2.9s-.4.4-.7.5c-.3,0-.6,0-.8-.1l-17.6-9.8-15.4,17.6Z"/>
        <path class="cls-1" d="M72.4,429l-6,2.1c-3.4,1.2-6.5,1.3-9.4.4-2.9-.9-5.3-2.5-7.2-5-1.9-2.4-3.5-5.5-4.9-9.2-1.3-3.7-2-7.1-2-10.2,0-3.1.8-5.9,2.5-8.4,1.7-2.5,4.3-4.4,7.7-5.6l5.9-2.1c5-1.8,9.3-1.3,13.1,1.3,3.7,2.6,6.6,6.8,8.5,12.3,2,5.6,2.3,10.6,1.1,15-1.2,4.4-4.3,7.4-9.3,9.2ZM64.7,404.6l-7.7,2.7c-1.3.5-2.2,1.3-2.5,2.5-.4,1.2-.3,2.6.3,4.2.6,1.6,1.4,2.7,2.4,3.4,1,.7,2.2.8,3.5.3l7.6-2.7c1.3-.5,2.2-1.3,2.6-2.5.4-1.2.3-2.6-.2-4.2-.6-1.6-1.4-2.7-2.4-3.4-1-.7-2.2-.8-3.5-.3Z"/>
        <path class="cls-1" d="M82.6,447.1l-7.2,3.9c-1.2.7-2,1.6-2.2,2.9-.2,1.2,0,2.5.9,4,.8,1.4,1.5,2.3,2.3,2.7.8.4,1.7.6,2.7.6s1.8.3,2.1,1l5.5,10.2c.2.3.2.6,0,.9,0,.3-.3.5-.6.7-2.8,1.5-6,1.6-9.8.3-1.9-.7-3.8-1.9-5.7-3.6-1.9-1.7-3.6-3.9-5.1-6.6l-1,.2c.3.2.7.9,1.3,1.9.6,1.1.8,2.2.8,3.2,0,1.1-.6,1.9-1.6,2.4-1,.5-2.1.4-3.2-.5-1.1-.8-2.1-2-2.9-3.5-.8-1.5-1.3-3-1.6-4.4-.2-1.4,0-2.3.8-2.7.3-.2.6,0,.8.3l1.6,2.9c.2.4.3.8.3,1.2,0,.5.2,1.1.6,1.8.4.8.9,1,1.5.7.5-.3.6-.9,0-1.8-.2-.4-.5-.8-.9-1.2-.4-.3-.6-.6-.8-.9l-1.1-2.1c-.3-.5-.2-.8.2-1.1,0,0,.3,0,.5-.1l2.6-.5c-2.1-4.7-2.7-9-1.8-13,.8-4,3.4-7.1,7.6-9.4l5.5-3c3.1-1.7,6.2-2.3,9.2-1.9,5.7.9,10.4,4.9,14.3,12,1.6,2.9,2.6,5.7,3.1,8.4.5,2.7.6,5.1.1,7.1-.9,4.1-2.8,6.9-5.7,8.5-.3.2-.6.2-.9,0-.3,0-.5-.3-.7-.6l-5.5-10.2c-.4-.7-.3-1.5.3-2.3.6-.9.9-1.7,1-2.6s-.3-2-1-3.4c-.8-1.4-1.7-2.4-2.8-2.9s-2.3-.4-3.6.2Z"/>
        <path class="cls-1" d="M126.6,487.5l6.8,9c.2.3.3.6.2.9,0,.3-.2.6-.4.7s-.4.3-.7.3l-26.1,2.8-9.6,7.3c-.3.2-.7.3-1.1.3s-.7-.2-1-.6l-7-9.1c-.2-.3-.3-.7-.3-1.1,0-.4.2-.7.6-1l9.6-7.3,9.7-24.4c.1-.2.3-.4.5-.6s.5-.2.8-.2c.3,0,.6.2.8.4l6.9,9c.6.8.7,1.6.4,2.5l-4.8,11.3,12.2-1.4c1-.1,1.9.2,2.4,1Z"/>
        <path class="cls-1" d="M155,532.8l-7-6.7-10.8,11.3,7,6.7c.3.3.4.6.4,1,0,.4-.1.7-.4,1l-5.6,5.9c-.3.3-.6.4-1,.4-.4,0-.8-.1-1-.4l-24.7-23.6c-.3-.3-.4-.6-.4-1s.1-.8.4-1l5.6-5.9c.3-.3.6-.4,1-.4.4,0,.8.1,1,.4l7.1,6.8,10.8-11.3-7.1-6.8c-.3-.3-.4-.6-.4-1,0-.4.1-.8.4-1l5.6-5.9c.3-.3.6-.4,1-.4.4,0,.8.1,1,.4l24.7,23.6c.3.3.4.6.4,1s-.1.8-.4,1l-5.6,5.9c-.3.3-.6.4-1,.4-.4,0-.8-.1-1-.4ZM153.3,504.6l5.3,5.1c.3.2.4.5.4.9,0,.3-.1.6-.4.9l-2.7,2.8c-.2.3-.5.4-.9.4s-.6-.1-.9-.4l-5.3-5.1c-.3-.2-.4-.5-.4-.9,0-.3.1-.6.4-.9l2.7-2.8c.2-.3.5-.4.9-.4.3,0,.6.1.9.4Z"/>
        <path class="cls-1" d="M178.7,554.5l12.8,8.9c.3.2.5.5.6.9,0,.4,0,.8-.2,1.1l-3.3,4.7c-3.1,4.5-7,6.8-11.5,6.8s-9.4-1.7-14.4-5.1c-5-3.5-8.3-7.3-9.9-11.6-1.6-4.2-.8-8.6,2.2-13l3.5-5.1c1.5-2.2,3.3-3.9,5.4-5s4.2-1.6,6.5-1.6c4.5.1,9.1,1.8,13.8,5.1,2.4,1.6,4.3,3.4,5.9,5.3,1.6,1.9,2.7,3.6,3.3,5.2.6,1.6,1,3.1,1.2,4.6.3,2.6,0,4.5-.8,5.7-.2.3-.4.4-.7.5-.3,0-.6,0-.9-.2l-10-6.9c-.6-.4-.9-.8-1-1.3-.3-1.6-1.2-2.9-2.8-4-1.6-1.1-3-1.7-4.3-1.7-1.3,0-2.3.4-2.9,1.3l-4.9,7.1c-.8,1.1-.9,2.3-.5,3.5.4,1.2,1.5,2.4,3.1,3.5,1.6,1.1,3.1,1.7,4.4,1.6,1.3,0,2.3-.5,2.9-1.3l-2.7-1.9c-.3-.2-.5-.5-.6-.9,0-.4,0-.8.2-1.1l3.4-4.9c.2-.3.5-.5.9-.6.4,0,.8,0,1.1.2ZM191.5,535l4.4,3c.6.4.7.8.4,1.2-1,1.4-2.5,2.1-4.5,2.1-2,0-4.3-.9-6.8-2.6-2.5-1.8-4.1-3.6-4.8-5.5-.7-1.9-.6-3.6.4-4.9.3-.4.7-.4,1.2,0l4.4,3c.4.3.6.7.4,1.2-.3.9,0,1.6.9,2.3.9.7,1.8.7,2.7.2.5-.2.9-.2,1.2,0Z"/>
        <path class="cls-1" d="M231.7,579.5l-8.8-4.2-6.8,14.1,8.8,4.2c.4.2.6.4.7.8.1.4.1.8,0,1.1l-3.6,7.3c-.2.4-.4.6-.8.7-.4.1-.8.1-1.1,0l-30.8-14.9c-.4-.2-.6-.4-.7-.8-.1-.4-.1-.8,0-1.1l3.5-7.3c.2-.4.4-.6.8-.7.4-.1.8-.1,1.1,0l8.9,4.3,6.8-14.1-8.9-4.3c-.4-.2-.6-.4-.7-.8-.1-.4-.1-.8,0-1.1l3.6-7.3c.2-.4.4-.6.8-.7.4-.1.8-.1,1.1,0l30.8,14.9c.4.2.6.4.7.8.1.4.1.8,0,1.1l-3.5,7.3c-.2.4-.4.6-.8.7-.4.1-.8.1-1.1,0ZM221.3,553.3l6.6,3.2c.3.2.5.4.6.7s0,.6,0,1l-1.7,3.5c-.2.3-.4.5-.7.7s-.6,0-1,0l-6.6-3.2c-.3-.2-.5-.4-.6-.7-.1-.3,0-.6,0-1l1.7-3.5c.2-.3.4-.5.7-.6.3-.1.6,0,1,0Z"/>
        <path class="cls-1" d="M243.6,572.5l35.6,10.7c.4.1.7.3.9.7s.2.7.1,1.1l-2.5,8.3c-.1.4-.3.7-.7.9s-.7.2-1.1.1l-11.1-3.3-7.1,23.6c-.1.4-.4.7-.7.9-.4.2-.7.2-1.1.1l-10.6-3.2c-.4-.1-.7-.3-.9-.7-.2-.4-.2-.7-.1-1.1l7.1-23.6-11.1-3.3c-.4-.1-.7-.4-.9-.7-.2-.4-.2-.7-.1-1.1l2.5-8.3c.1-.4.4-.7.7-.9.4-.2.7-.2,1.1-.1Z"/>
        <path class="cls-1" d="M329.4,589.8l17.2-.3c4,0,7.4.4,10.3,1.4,2.9,1,5.3,2.7,7.2,5.1,1.8,2.4,2.8,5.5,2.9,9.2v5.5c.2,5.8-1.6,10-5.5,12.7-3.5,2.4-8.2,3.7-14.2,3.8l-17.2.3c-.4,0-.7-.1-1-.4-.3-.3-.4-.6-.4-1l-.7-34.8c0-.4.1-.7.4-1,.3-.3.6-.4,1-.4ZM342.2,600.1l.3,16.7h4.9c1.7-.1,3-.6,4-1.4,1-.8,1.4-2,1.4-3.5v-7.4c-.2-1.5-.7-2.6-1.7-3.4s-2.4-1.2-4-1.1h-4.9Z"/>
        <path class="cls-1" d="M412.4,597.2l1.1,6.3c.6,3.6.3,6.7-1.1,9.4-1.3,2.7-3.4,4.8-6,6.3-2.7,1.5-6,2.6-9.9,3.3-3.9.7-7.4.8-10.4.3s-5.7-1.8-7.9-3.8c-2.2-2.1-3.6-4.9-4.2-8.5l-1.1-6.1c-.9-5.2.2-9.4,3.4-12.7,3.2-3.2,7.7-5.4,13.6-6.4,5.8-1,10.8-.6,14.9,1.3,4.1,1.9,6.6,5.5,7.6,10.6ZM387.1,600.8l1.4,8c.2,1.4.9,2.3,2,2.9,1.1.6,2.5.7,4.2.4,1.7-.3,2.9-.9,3.8-1.8.8-.9,1.1-2.1.9-3.4l-1.4-7.9c-.2-1.4-.9-2.3-2-2.9s-2.5-.7-4.2-.4-2.9.9-3.8,1.8c-.8.9-1.1,2-.9,3.4Z"/>
        <path class="cls-1" d="M449.7,569.7l6.7,19.2c1.8,5.1,1.4,9.5-1.1,13.2-2.5,3.7-6.6,6.5-12.3,8.5-3.1,1.1-6,1.7-8.8,1.7-2.8,0-5.1-.3-7.1-1-4-1.6-6.6-3.9-7.6-7-.1-.3,0-.6,0-.9.1-.3.4-.5.7-.6l11.5-4c.6-.2,1.2,0,1.6.7,1.3,1.8,3.3,2.2,5.9,1.3,1.6-.6,2.7-1.3,3.4-2.4.7-1.1.8-2.2.3-3.6l-3.9-11.1-18.6,6.5c-.4.1-.7.1-1.1,0-.4-.2-.6-.5-.7-.8l-2.7-7.7c-.1-.4-.1-.7,0-1.1.2-.4.4-.6.8-.7l31-10.7c.4-.1.7-.1,1.1,0s.6.4.7.8Z"/>
        <path class="cls-1" d="M496.5,561.4l3,5.7c1.7,3.2,2.3,6.3,1.9,9.2-.4,3-1.7,5.6-3.8,7.9-2.1,2.3-4.9,4.3-8.4,6.2-3.5,1.9-6.7,3-9.8,3.5-3,.5-5.9,0-8.7-1.2-2.7-1.3-5-3.5-6.7-6.8l-2.9-5.5c-2.5-4.7-2.7-9-.7-13.1,2-4.1,5.7-7.5,10.9-10.3,5.2-2.8,10.1-3.9,14.6-3.4s8,3.1,10.5,7.7ZM473.5,572.7l3.8,7.2c.7,1.2,1.6,1.9,2.8,2.1,1.2.2,2.6-.1,4.1-.9,1.5-.8,2.5-1.8,3-2.9.5-1.1.4-2.3-.2-3.6l-3.8-7.1c-.7-1.2-1.6-1.9-2.8-2.2-1.2-.2-2.6,0-4.1.9s-2.5,1.8-3,2.9c-.5,1.1-.4,2.3.2,3.5Z"/>
      </g>
    </g>
  </g>
</svg>